<?xml version="1.0" encoding="UTF-8"?>
<svg width="836px" height="250px" viewBox="0 0 836 250" version="1.1" xmlns="http://www.w3.org/2000/svg" xmlns:xlink="http://www.w3.org/1999/xlink">
    <!-- Generator: Sketch 49.1 (51147) - http://www.bohemiancoding.com/sketch -->
    <title>Lifen-orange Copy@1,5x</title>
    <desc>Created with Sketch.</desc>
    <defs></defs>
    <g id="Page-1" stroke="none" stroke-width="1" fill="none" fill-rule="evenodd">
        <g id="Lifen+logo-orange" transform="translate(-130.000000, -130.000000)" fill="#FF6742">
            <g id="Lifen-orange-Copy" transform="translate(130.000000, 130.000000)">
                <g id="Group-4">
                    <g id="logo">
                        <g id="monogramme_honestica_blanc">
                            <g id="Calque_1">
                                <g id="Group">
                                    <path d="M144.495022,162.217367 C159.388274,185.733407 181.336836,201.138274 208.772677,201.138274 C224.444137,201.138274 238.402655,196.205752 249.617257,187.820796 L249.617257,67.034292 C238.403208,58.4336283 224.44469,53.3506637 208.772677,53.3506637 C178.985619,53.3506637 149.589602,70.9878319 134.69635,105.478982 L112.356195,90.977323 C132.736726,47.0801991 168.402102,25.1316372 208.772124,25.1316372 C223.563606,25.1316372 237.342367,28.3285398 249.616704,34.0602876 L249.616704,8.0071443 C249.616704,3.58492061 246.040086,0 241.611744,0 L8.00495949,0 C3.58394244,0 0,3.57893286 0,8.00566235 L0,110.390487 L70.0271018,110.390487 C113.139934,110.390487 131.560288,141.836283 144.495022,162.217367 Z M38.5182522,28.6200221 L68.2140487,28.6200221 L68.2140487,51.3915929 L68.2140487,59.6216814 L68.2140487,90.5934735 L38.5182522,90.5934735 L38.5182522,28.6200221 Z M113.922566,166.690819 C130.777102,193.73396 155.468473,227.764381 208.772124,227.764381 C223.563053,227.764381 237.342367,224.650442 249.617257,219.038717 L249.617257,241.622638 C249.617257,246.034151 246.033314,249.616704 241.612297,249.616704 L8.00551259,249.616704 C3.5771707,249.616704 0.000553097346,246.031493 0.000553097346,241.608912 L0.000553097346,138.580199 L38.5188053,138.580199 L38.5188053,224.439712 L68.2140487,224.439712 L68.2140487,182.298673 L68.2140487,168.972345 L68.2140487,138.149889 L70.0271018,138.149889 C91.1913717,138.149889 103.341261,149.837389 113.922566,166.690819 Z" id="Combined-Shape"></path>
                                </g>
                            </g>
                        </g>
                    </g>
                </g>
                <path d="M375.008,225 L344.684,225 L344.684,28.16 L375.008,28.16 L375.008,225 Z M450.02,47.312 L450.02,49.174 C450.02,61.41 441.774,68.592 430.07,68.592 C419.43,68.592 411.184,61.41 411.184,49.174 L411.184,47.312 C411.184,35.608 419.43,28.16 430.07,28.16 C441.774,28.16 450.02,35.608 450.02,47.312 Z M445.764,225 L415.44,225 L415.44,92 L445.764,92 L445.764,225 Z M523.17,225 L493.112,225 L493.112,119.132 L470.236,119.132 L470.236,92 L493.112,92 L493.112,81.626 C493.112,42.524 512.264,25.5 542.588,25.5 C556.686,25.5 565.198,28.958 574.508,33.48 L563.868,59.016 C558.016,55.824 551.1,53.43 544.45,53.43 C532.214,53.43 523.17,59.814 523.17,80.828 L523.17,92 L562.538,92 L562.538,119.132 L523.17,119.132 L523.17,225 Z M663.618,183.77 L687.292,197.602 C677.184,216.488 658.298,227.66 633.294,227.66 C596.32,227.66 571.05,202.922 571.05,161.958 L571.05,154.776 C571.05,114.876 594.724,89.34 630.634,89.34 C666.278,89.34 688.622,112.748 688.622,151.85 C688.622,156.638 688.622,162.756 688.09,168.342 L601.64,168.342 C603.768,190.42 615.206,201.592 633.826,201.592 C647.392,201.592 658.032,194.676 663.618,183.77 Z M601.64,147.328 L658.298,147.328 C658.032,125.782 647.126,115.142 630.368,115.142 C612.812,115.142 603.502,126.846 601.64,147.328 Z M835.454,225 L805.13,225 L805.13,144.402 C805.13,123.654 793.958,115.674 778.53,115.674 C767.092,115.674 758.314,122.324 752.462,130.57 L752.462,225 L722.138,225 L722.138,92 L752.462,92 L752.462,105.3 C762.57,94.66 775.338,89.34 789.702,89.34 C816.302,89.34 835.454,103.438 835.454,135.358 L835.454,225 Z" id="lifen"></path>
            </g>
        </g>
    </g>
</svg>